<svg width="31" height="31" viewBox="0 0 31 31" fill="none" xmlns="http://www.w3.org/2000/svg">
<path d="M15.5 0C19.6109 0 23.5533 1.63303 26.4602 4.53984C29.367 7.44666 31 11.3891 31 15.5C31 19.6109 29.367 23.5533 26.4602 26.4602C23.5533 29.367 19.6109 31 15.5 31C11.3891 31 7.44666 29.367 4.53984 26.4602C1.63303 23.5533 0 19.6109 0 15.5C0 11.3891 1.63303 7.44666 4.53984 4.53984C7.44666 1.63303 11.3891 0 15.5 0V0ZM15.5 2.53167C8.37775 2.53167 2.58333 8.32608 2.58333 15.5C2.58001 18.2266 3.43617 20.8849 5.03013 23.0971C6.62409 25.3092 8.87476 26.9627 11.4622 27.8225C11.5008 27.8283 11.5396 27.8326 11.5785 27.8354C12.1029 27.8612 12.2992 27.5022 12.2992 27.1896L12.2812 24.9834C8.69033 25.7662 7.93083 23.2422 7.93083 23.2422C7.34442 21.7439 6.49708 21.3461 6.49708 21.3461C5.32425 20.5401 6.58492 20.5556 6.58492 20.5556C7.52783 20.6227 8.14525 21.2996 8.41392 21.6664L8.56375 21.8938C9.71592 23.8752 11.5862 23.3042 12.3225 22.9736C12.4413 22.134 12.772 21.5631 13.1414 21.2376C10.2739 20.9095 7.25917 19.7961 7.25917 14.8257C7.25917 13.4101 7.76292 12.2527 8.58958 11.3434L8.51208 11.1238C8.34675 10.5994 8.11942 9.424 8.71617 7.91017L8.8195 7.89208C9.13983 7.85075 10.2352 7.8585 12.2682 9.24058C13.3214 8.95252 14.4082 8.80571 15.5 8.804C16.5979 8.80917 17.7036 8.95383 18.7343 9.24317C21.2014 7.564 22.2838 7.91017 22.2838 7.91017C22.9865 9.69783 22.5422 11.0153 22.413 11.346C23.2397 12.2502 23.7382 13.4101 23.7382 14.8257C23.7382 19.8116 20.7183 20.9069 17.8405 21.2272C18.3055 21.6277 18.7188 22.4207 18.7188 23.6297L18.7033 27.1896C18.7033 27.5254 18.9229 27.9181 19.5378 27.8225C22.1252 26.9627 24.3759 25.3092 25.9699 23.0971C27.5638 20.8849 28.42 18.2266 28.4167 15.5C28.4167 8.32608 22.6222 2.53167 15.5 2.53167Z" fill="white"/>
</svg>
